<svg width="196" height="196" viewBox="0 0 196 196" fill="none" xmlns="http://www.w3.org/2000/svg">
<g clip-path="url(#clip0_3_15)">
<g clip-path="url(#clip1_3_15)">
<g clip-path="url(#clip2_3_15)">
<rect width="196" height="196" rx="44.9167" fill="white" fill-opacity="0.26"/>
<rect x="1.02083" y="1.02083" width="193.958" height="193.958" rx="43.8958" stroke="white" stroke-opacity="0.1" stroke-width="2.04167"/>
<path d="M129.23 26.5417H108.848C105.312 26.5417 102.034 28.361 100.202 31.3863C95.2653 39.5414 85.2933 56.3084 79.273 68.4422C73.8164 79.4398 66.1927 94.9389 62.0919 103.285C60.7591 105.997 62.7384 109.156 65.7606 109.156H91.2805L67.5456 175.782C66.7663 177.97 69.6618 179.554 71.0833 177.717L79.273 167.137L100.484 135.683L132.174 91.3605C134.106 88.658 132.175 84.9022 128.853 84.9022H103.159L118.829 56.101L132.739 32.7124C134.358 29.9905 132.397 26.5417 129.23 26.5417Z" fill="#1E1E1E"/>
</g>
</g>
</g>
<defs>
<clipPath id="clip0_3_15">
<rect width="196" height="196" fill="white"/>
</clipPath>
<clipPath id="clip1_3_15">
<rect width="196" height="196" fill="white"/>
</clipPath>
<clipPath id="clip2_3_15">
<rect width="196" height="196" fill="white"/>
</clipPath>
</defs>
</svg>
